# xmcd
#
# Track frame offsets: 
#        150
#        44006
#        75877
#        103973
#        142058
#        167226
#        186237
#
# Disc length: 2785 seconds
#
# Revision: 2
# Processed by: cddbd v1.5.2PL0 Copyright (c) Steve Scherf et al.
# Submitted via: ExactAudioCopy v0.99pb4
#
DISCID=600adf07
DTITLE=Jack Rose - Raag Manifestos
DYEAR=2004
DGENRE=Instrumental
TTITLE0=Black Pearls From The River
TTITLE1=Tower Of Babel
TTITLE2=Hart Crane's Old Boyfriends
TTITLE3=Tex
TTITLE4=Crossing The Great Waters
TTITLE5=Road
TTITLE6=Blessed Be The Name Of The Lord
EXTD=
EXTT0=
EXTT1=
EXTT2=
EXTT3=
EXTT4=
EXTT5=
EXTT6=
PLAYORDER=
